# xmcd
#
# Track frame offsets:
#	150
#	9465
#	19343
#	28928
#	39203
#	50956
#	59896
#	71131
#	82351
#	92244
#	100592
#	110612
#
# Disc length: 1615 seconds
#
# Revision: 0
# Processed by: cddbd v1.5.2PL0 Copyright (c) Steve Scherf et al.
# Submitted via: audiograbber 1.83.01
#
DISCID=ae064d0c
DTITLE=Porter Wanger - The Thin Man From West Plains
DYEAR=1965
DGENRE=Country
TTITLE0=Another Day, Another Dollar
TTITLE1=Lovin' Lies
TTITLE2=I'm Gonna Feed You Now
TTITLE3=My Friends Are Gonna Be Strangers
TTITLE4=Tommorrow We'll Retire
TTITLE5=Sorrow On The Rocks
TTITLE6=My Baby Turns The Lights On Uptown
TTITLE7=The Bride's Bouquet
TTITLE8=Dim Lights, Thick Smoke And Loud Music
TTITLE9=I Coudn't Care Less
TTITLE10=Memories From The Past
TTITLE11=I'll Go Down Swinging
EXTD=this is from one of my LP's that I turned into a CD
EXTT0=
EXTT1=
EXTT2=
EXTT3=
EXTT4=
EXTT5=
EXTT6=
EXTT7=
EXTT8=
EXTT9=
EXTT10=
EXTT11=
PLAYORDER=
